<svg width="112" height="39" fill="none" xmlns="http://www.w3.org/2000/svg"><path d="M13.403 39a1.25 1.25 0 0 1-1.09-.611l-8.337-13a.947.947 0 0 1 .289-1.32c.449-.29 1.058-.16 1.314.29l7.76 12.099c4.585-9.17 9.715-20.916 9.715-25.1 0-5.566-5.258-8.205-5.803-8.43-.546-.193-7.023-2.284-11.287.29C3.912 4.44 2.661 6.564 2.212 9.557c-.64 4.215-.128 7.4 1.475 9.17 1.604 1.77 3.816 1.642 3.912 1.642h.129c.064 0 5.386.257 7.855-2.639 1.219-1.448 1.571-3.475 1.026-6.082-.417-2.027-2.148-3.507-4.136-3.571-2.116-.065-3.27.515-3.751 1.834-.546 1.609-.578 2.864 0 3.765.801 1.287 2.565 1.544 2.565 1.544a.967.967 0 0 1 .833 1.062c-.064.515-.545.901-1.058.837-.096 0-2.693-.354-3.976-2.414-.898-1.415-.962-3.25-.192-5.438.737-2.156 2.63-3.185 5.611-3.121 2.886.064 5.323 2.156 5.964 5.084.673 3.218.192 5.824-1.443 7.755-2.982 3.475-8.69 3.347-9.363 3.314-.48.033-3.27.033-5.386-2.252C.192 17.794-.45 14.191.289 9.267.834 5.663 2.405 3.09 4.97 1.545c5.227-3.154 12.633-.547 12.954-.45.032-.001.064.031.064.031.289.129 6.99 3.218 6.99 10.2 0 5.89-7.984 22.107-10.42 26.934-.225.418-.642.708-1.091.708-.032.032-.032.032-.064.032Z" fill="#5F85FF"/><path d="M21.868 33.69V5.246h4.296v28.446h-4.296ZM28.313 23.394c0-5.438 2.116-10.587 10.196-10.587 7.984 0 10.196 5.149 10.196 10.587 0 5.502-2.212 10.586-10.228 10.586-8.08-.032-10.164-5.116-10.164-10.586Zm16 0c0-3.83-.962-7.08-5.804-7.08-4.778 0-5.804 3.218-5.804 7.08 0 3.893 1.059 7.079 5.772 7.079 4.778 0 5.836-3.121 5.836-7.08ZM50.052 23.394c0-5.47 2.212-10.587 10.132-10.587 6.253 0 9.235 3.347 9.235 8.495h-4.361c-.289-3.186-1.571-4.988-4.97-4.988-4.425 0-5.643 3.057-5.643 7.047 0 3.894 1.218 6.919 5.74 6.919 3.398 0 4.617-1.674 4.905-4.666h4.36c0 5.084-2.853 8.366-9.138 8.366-8.144-.032-10.26-5.116-10.26-10.586ZM70.733 27.641c0-3.765 2.694-5.47 8.53-6.082l6.444-.643c-.128-3.379-1.186-4.698-5.322-4.698-3.816 0-4.842 1.512-4.842 4.087l-4.168.032c0-4.28 1.763-7.562 8.978-7.562 8.368 0 9.587 3.636 9.587 9.17v11.713H87.63l-.898-3.089c-.962 1.61-3.815 3.379-8.048 3.379-4.425 0-7.952-1.963-7.952-6.307Zm14.974-2.8v-.643l-5.803.644c-3.56.418-4.778 1.158-4.778 2.767 0 1.898 1.603 2.992 4.617 2.992 4.137-.032 5.964-2.188 5.964-5.76ZM92.377 33.69V5.246h4.296v28.446h-4.296ZM99.623 33.69V5.246h4.297v28.446h-4.297ZM105.78 7.337c0-2.092 1.25-2.607 3.174-2.607 1.86 0 3.046.515 3.046 2.607 0 2.059-1.186 2.574-3.046 2.574-1.924 0-3.174-.515-3.174-2.574Zm1.026 26.354V13.096h4.264v20.595h-4.264Z" fill="#000"/></svg>