<svg width="20" height="14" fill="none" xmlns="http://www.w3.org/2000/svg"><path d="M8.625 13.875a1.812 1.812 0 0 1-1.162-.415L1.217 8.089a.691.691 0 0 1-.084-.957l1.45-1.775a.687.687 0 0 1 .984-.084l4.875 4.232L16.279.9a.687.687 0 0 1 .967-.05l1.708 1.534a.687.687 0 0 1 .05.973l-9.013 9.909a1.852 1.852 0 0 1-1.366.608Z" fill="url(#a)"/><defs><linearGradient id="a" x1="10.08" y1=".677" x2="10.08" y2="13.875" gradientUnits="userSpaceOnUse"><stop offset=".278" stop-color="#65E04D"/><stop offset=".458" stop-color="#5CD740"/><stop offset=".79" stop-color="#44C11D"/><stop offset="1" stop-color="#33B004"/></linearGradient></defs></svg>